<svg viewBox="0 0 137 137" fill="none" xmlns="http://www.w3.org/2000/svg">
<path d="M34.5417 88.875C15.787 88.875 0.583328 73.6712 0.583328 54.9166C0.583328 36.162 15.787 20.9583 34.5417 20.9583C34.7668 20.9583 34.9914 20.9605 35.2155 20.9649C41.3972 8.86643 53.9812 0.583313 68.5 0.583313C85.6096 0.583313 100.033 12.0867 104.457 27.7814C104.92 27.7605 105.386 27.75 105.854 27.75C122.733 27.75 136.417 41.4333 136.417 58.3125C136.417 75.1918 122.733 88.875 105.854 88.875C80.3406 88.875 63.3057 88.875 34.5417 88.875Z" fill="#0360A7"/>
<path d="M95.6667 112.646L88.875 129.625M41.3333 112.646L34.5417 129.625M68.5 112.646L61.7083 129.625" stroke="#0360A7" stroke-width="13.5833" stroke-linecap="round" stroke-linejoin="round"/>
</svg>
