<svg viewBox="0 0 72 72" xmlns="http://www.w3.org/2000/svg" xmlns:xlink="http://www.w3.org/1999/xlink" class="weather-icon"><defs><radialGradient cx="55.214%" cy="105.743%" fx="55.214%" fy="105.743%" r="135.163%" gradientTransform="matrix(0 1 -.89615 0 1.5 .505)" id="mostly_clear_day_svg__b"><stop stop-color="#FBC057" offset="0%"></stop><stop stop-color="#F1EE59" offset="100%"></stop></radialGradient><radialGradient cx="50%" cy="50%" fx="50%" fy="50%" r="48.157%" gradientTransform="matrix(0 1 -.9961 0 .998 0)" id="mostly_clear_day_svg__c"><stop stop-color="#F5A235" offset="0%"></stop><stop stop-color="#F5A235" stop-opacity="0" offset="100%"></stop></radialGradient><radialGradient cx="50%" cy="50%" fx="50%" fy="50%" r="50%" id="mostly_clear_day_svg__e"><stop stop-color="#FFF504" offset="0%"></stop><stop stop-color="#FFF504" stop-opacity="0" offset="100%"></stop></radialGradient><linearGradient x1="50%" y1="0%" x2="50%" y2="100%" id="mostly_clear_day_svg__f"><stop stop-color="#EFEFEF" offset="0%"></stop><stop stop-color="#D9D9D9" offset="100%"></stop></linearGradient><linearGradient x1="50%" y1="50%" x2="100%" y2="50%" id="mostly_clear_day_svg__h"><stop stop-opacity="0" offset="0%"></stop><stop stop-opacity="0.04" offset="100%"></stop></linearGradient><circle id="mostly_clear_day_svg__a" cx="20.333" cy="20.333" r="20.333"></circle><path d="M27.793 38a16.428 16.428 0 00-13.301 6.761 12.357 12.357 0 00-2.24-.203C5.487 44.558 0 50.029 0 56.778c0 6.45 5.008 11.732 11.356 12.19V69h31.08C47.719 69 52 64.73 52 59.462c0-4.865-3.65-8.878-8.368-9.465C41.705 43.078 35.344 38 27.793 38z" id="mostly_clear_day_svg__g"></path></defs><g fill="none" fill-rule="evenodd"><path d="M0 0h72v72H0z"></path><g transform="translate(21.167 11.167)"><mask id="mostly_clear_day_svg__d" fill="#fff"><use xlink:href="#mostly_clear_day_svg__a"></use></mask><use fill="url(#mostly_clear_day_svg__b)" fill-rule="nonzero" xlink:href="#mostly_clear_day_svg__a"></use><ellipse fill="url(#mostly_clear_day_svg__c)" mask="url(#mostly_clear_day_svg__d)" cx="24.51" cy="65.021" rx="39.76" ry="39.604"></ellipse><ellipse fill="url(#mostly_clear_day_svg__c)" mask="url(#mostly_clear_day_svg__d)" cx="-11.074" cy="19.271" rx="39.76" ry="39.604"></ellipse><circle fill="url(#mostly_clear_day_svg__e)" opacity="0.5" mask="url(#mostly_clear_day_svg__d)" cx="23.722" cy="8.472" r="20.333"></circle></g><path d="M41.5 55.222c.936 0 1.694.759 1.694 1.695v3.389a1.694 1.694 0 01-3.388 0v-3.39c0-.935.758-1.694 1.694-1.694zM16.083 29.806a1.694 1.694 0 110 3.388h-3.389a1.694 1.694 0 110-3.388h3.39zm54.223 0a1.694 1.694 0 010 3.388h-3.39a1.694 1.694 0 110-3.388h3.39zM41.5 1c.936 0 1.694.759 1.694 1.694v3.39a1.694 1.694 0 11-3.388 0v-3.39C39.806 1.76 40.564 1 41.5 1zM24.726 48.274a1.694 1.694 0 010 2.396l-2.396 2.397a1.694 1.694 0 01-2.397-2.397l2.397-2.396a1.694 1.694 0 012.396 0zm0-35.944a1.694 1.694 0 01-2.396 2.396l-2.397-2.396a1.694 1.694 0 012.397-2.397l2.396 2.397zm38.34 38.34a1.694 1.694 0 01-2.396 2.397l-2.396-2.397a1.694 1.694 0 012.396-2.396l2.397 2.396zm0-40.737a1.694 1.694 0 010 2.397l-2.396 2.396a1.694 1.694 0 01-2.396-2.396l2.396-2.397a1.694 1.694 0 012.397 0z" fill="#F5C23E"></path><g><use fill="url(#mostly_clear_day_svg__f)" xlink:href="#mostly_clear_day_svg__g"></use><use fill="url(#mostly_clear_day_svg__h)" xlink:href="#mostly_clear_day_svg__g"></use></g></g></svg>