<svg viewBox="0 0 72 72" xmlns="http://www.w3.org/2000/svg" xmlns:xlink="http://www.w3.org/1999/xlink" class="weather-icon"><defs><radialGradient cx="55.214%" cy="105.743%" fx="55.214%" fy="105.743%" r="135.163%" gradientTransform="matrix(0 1 -.89615 0 1.5 .505)" id="clear_day_svg__b"><stop stop-color="#FBC057" offset="0%"></stop><stop stop-color="#F1EE59" offset="100%"></stop></radialGradient><radialGradient cx="50%" cy="50%" fx="50%" fy="50%" r="48.157%" gradientTransform="matrix(0 1 -.9961 0 .998 0)" id="clear_day_svg__c"><stop stop-color="#F5A235" offset="0%"></stop><stop stop-color="#F5A235" stop-opacity="0" offset="100%"></stop></radialGradient><radialGradient cx="50%" cy="50%" fx="50%" fy="50%" r="50%" id="clear_day_svg__e"><stop stop-color="#FFF504" offset="0%"></stop><stop stop-color="#FFF504" stop-opacity="0" offset="100%"></stop></radialGradient><circle id="clear_day_svg__a" cx="24" cy="24" r="24"></circle></defs><g fill="none" fill-rule="evenodd"><path d="M0 0h72v72H0z"></path><g transform="translate(12 12)"><mask id="clear_day_svg__d" fill="#fff"><use xlink:href="#clear_day_svg__a"></use></mask><use fill="url(#clear_day_svg__b)" fill-rule="nonzero" xlink:href="#clear_day_svg__a"></use><ellipse fill="url(#clear_day_svg__c)" mask="url(#clear_day_svg__d)" cx="28.929" cy="76.746" rx="46.929" ry="46.746"></ellipse><ellipse fill="url(#clear_day_svg__c)" mask="url(#clear_day_svg__d)" cx="-13.071" cy="22.746" rx="46.929" ry="46.746"></ellipse><circle fill="url(#clear_day_svg__e)" opacity="0.5" mask="url(#clear_day_svg__d)" cx="28" cy="10" r="24"></circle></g><path d="M36 64a2 2 0 012 2v4a2 2 0 11-4 0v-4a2 2 0 012-2zM6 34a2 2 0 110 4H2a2 2 0 110-4h4zm64 0a2 2 0 110 4h-4a2 2 0 110-4h4zM36 0a2 2 0 012 2v4a2 2 0 11-4 0V2a2 2 0 012-2zM16.201 55.799a2 2 0 010 2.828l-2.828 2.829a2 2 0 11-2.829-2.829l2.829-2.828a2 2 0 012.828 0zm0-42.426a2 2 0 11-2.828 2.828l-2.829-2.828a2 2 0 112.829-2.829l2.828 2.829zm45.255 45.254a2 2 0 11-2.829 2.829L55.8 58.627a2 2 0 112.828-2.828l2.829 2.828zm0-48.083a2 2 0 010 2.829L58.627 16.2a2 2 0 11-2.828-2.828l2.828-2.829a2 2 0 012.829 0z" fill="#F5C23E"></path></g></svg>