<svg viewBox="0 0 72 72" xmlns="http://www.w3.org/2000/svg" xmlns:xlink="http://www.w3.org/1999/xlink" class="upcoming-days-summary__weather-icon--gMBe"><defs><linearGradient x1="50%" y1="0%" x2="50%" y2="100%" id="drizzle_svg__a"><stop stop-color="#3FCEF5" stop-opacity="0" offset="0%"></stop><stop stop-color="#0072F5" offset="100%"></stop></linearGradient><linearGradient x1="50%" y1="0%" x2="50%" y2="100%" id="drizzle_svg__b"><stop stop-color="#3FCEF5" stop-opacity="0" offset="0%"></stop><stop stop-color="#0072F5" offset="100%"></stop></linearGradient><linearGradient x1="50%" y1="0%" x2="50%" y2="100%" id="drizzle_svg__c"><stop stop-color="#EFEFEF" offset="0%"></stop><stop stop-color="#D9D9D9" offset="100%"></stop></linearGradient><linearGradient x1="50%" y1="50%" x2="100%" y2="50%" id="drizzle_svg__e"><stop stop-opacity="0" offset="0%"></stop><stop stop-opacity="0.04" offset="100%"></stop></linearGradient><path d="M38.483 3c-7.572 0-14.28 3.695-18.418 9.378a17.08 17.08 0 00-3.1-.282C7.596 12.096 0 19.686 0 29.048c0 8.945 6.934 16.272 15.724 16.907V46H58.76C66.072 46 72 40.076 72 32.77c0-6.748-5.054-12.315-11.586-13.13C57.746 10.045 48.938 3 38.483 3z" id="drizzle_svg__d"></path></defs><g fill="none" fill-rule="evenodd"><path d="M0 0h72v72H0z"></path><path d="M28 46h3v15.5a1.5 1.5 0 01-3 0V46z" fill="url(#drizzle_svg__a)"></path><path d="M42 46h3v8.5a1.5 1.5 0 01-3 0V46z" fill="url(#drizzle_svg__b)"></path><use fill="url(#drizzle_svg__c)" xlink:href="#drizzle_svg__d"></use><use fill="url(#drizzle_svg__e)" xlink:href="#drizzle_svg__d"></use></g></svg>