<svg viewBox="0 0 72 72" xmlns="http://www.w3.org/2000/svg" xmlns:xlink="http://www.w3.org/1999/xlink" class="weather-icon"><defs><linearGradient x1="50%" y1="0%" x2="50%" y2="100%" id="cloudy_svg__a"><stop stop-color="#E3E3E3" offset="0%"></stop><stop stop-color="#B9B9B9" offset="100%"></stop></linearGradient><linearGradient x1="50%" y1="0%" x2="50%" y2="100%" id="cloudy_svg__b"><stop stop-color="#EFEFEF" offset="0%"></stop><stop stop-color="#D9D9D9" offset="100%"></stop></linearGradient><linearGradient x1="50%" y1="50%" x2="100%" y2="50%" id="cloudy_svg__d"><stop stop-opacity="0" offset="0%"></stop><stop stop-opacity="0.04" offset="100%"></stop></linearGradient><path d="M38.483 18c-7.572 0-14.28 3.695-18.418 9.378a17.08 17.08 0 00-3.1-.282C7.596 27.096 0 34.686 0 44.048c0 8.945 6.934 16.272 15.724 16.907V61H58.76C66.072 61 72 55.076 72 47.77c0-6.748-5.054-12.315-11.586-13.13C57.746 25.045 48.938 18 38.483 18z" id="cloudy_svg__c"></path></defs><g fill="none" fill-rule="evenodd"><path d="M0 0h72v72H0z"></path><path d="M37.658 37C32.865 36.933 29 33.045 29 28.26c0-4.828 3.931-8.741 8.781-8.741.474 0 .94.037 1.394.11.89-4.907 5.204-8.629 10.391-8.629 5.303 0 9.692 3.889 10.448 8.957a8.785 8.785 0 012.75-.438c4.85 0 8.781 3.913 8.781 8.74 0 4.828-3.931 8.741-8.78 8.741l.122-.002V37h-25.23z" fill="url(#cloudy_svg__a)"></path><use fill="url(#cloudy_svg__b)" xlink:href="#cloudy_svg__c"></use><use fill="url(#cloudy_svg__d)" xlink:href="#cloudy_svg__c"></use></g></svg>