<svg viewBox="0 0 212 212" fill="none" xmlns="http://www.w3.org/2000/svg">
<path d="M53 194.333C33.4859 194.333 17.6667 178.514 17.6667 159C17.6667 139.486 33.4859 123.667 53 123.667C57.1003 123.667 61.0375 124.365 64.699 125.65C71.0254 109 87.1309 97.1667 106 97.1667C124.869 97.1667 140.975 109 147.301 125.65C150.963 124.365 154.9 123.667 159 123.667C178.514 123.667 194.333 139.486 194.333 159C194.333 178.514 178.514 194.333 159 194.333C118.011 194.333 87.2664 194.333 53 194.333Z" fill="#0360A7"/>
<path d="M92.75 13.25V27.3833M31.8 88.3333H17.6667M48.1523 43.7371L38.1584 33.7433M137.357 43.7371L147.351 33.7433M167.833 88.3333H153.7M57.4173 88.3342C57.4173 68.8199 73.2365 53.0006 92.7509 53.0006C106.054 53.0006 117.64 60.3524 123.668 71.2149" stroke="#0360A7" stroke-width="12" stroke-linecap="round" stroke-linejoin="round"/>
</svg>
