<svg viewBox="0 0 217 140" fill="none" xmlns="http://www.w3.org/2000/svg">
<path d="M82 121.333C60.4609 121.333 43 103.873 43 82.3333C43 62.0221 58.5264 45.3379 78.3577 43.5015C82.4144 18.8251 103.842 0 129.667 0C155.492 0 176.919 18.8251 180.976 43.5015C200.807 45.3379 216.333 62.0221 216.333 82.3333C216.333 103.873 198.873 121.333 177.333 121.333C139.288 121.333 115.309 121.333 82 121.333Z" fill="#00477C" style="opacity: 0.7"/>
<path d="M39.3333 139.667C17.7942 139.667 0.333328 122.206 0.333328 100.667C0.333328 80.3555 15.8597 63.6713 35.6911 61.8348C39.7477 37.1585 61.1754 18.3333 87 18.3333C112.825 18.3333 134.252 37.1585 138.309 61.8348C158.14 63.6713 173.667 80.3555 173.667 100.667C173.667 122.206 156.206 139.667 134.667 139.667C96.6217 139.667 72.6419 139.667 39.3333 139.667Z" fill="#0360A7"/>
</svg>
